<?xml version="1.0" encoding="utf-8"?>
<!-- Generator: Adobe Illustrator 18.0.0, SVG Export Plug-In . SVG Version: 6.00 Build 0)  -->
<!DOCTYPE svg PUBLIC "-//W3C//DTD SVG 1.1//EN" "http://www.w3.org/Graphics/SVG/1.1/DTD/svg11.dtd">
<svg version="1.1" id="Capa_1" xmlns="http://www.w3.org/2000/svg" xmlns:xlink="http://www.w3.org/1999/xlink" x="0px" y="0px"
	 viewBox="0 0 99.7 99.7" enable-background="new 0 0 99.7 99.7" xml:space="preserve">
<path fill="#202020" d="M89.8,99.7h-80c-5.4,0-9.8-4.4-9.8-9.8v-80C0,4.4,4.4,0,9.8,0h80c5.4,0,9.8,4.4,9.8,9.8v80
	C99.7,95.3,95.3,99.7,89.8,99.7z"/>
<path fill="#FFFFFF" d="M28.3,87.3v-75h37.9c3.8,0,5.1,2.9,5.1,6.9v40.2c0,4-1.3,5-5.1,5H47.3v23H28.3z M47.3,51.3h2.5
	c2.4,0,2.5-1.3,2.5-2.6V32.6c0-2.4-0.8-3.3-2.1-3.3h-2.9V51.3z"/>
</svg>
