<?xml version="1.0" encoding="utf-8"?>
<!-- Generator: Adobe Illustrator 18.0.0, SVG Export Plug-In . SVG Version: 6.00 Build 0)  -->
<!DOCTYPE svg PUBLIC "-//W3C//DTD SVG 1.1//EN" "http://www.w3.org/Graphics/SVG/1.1/DTD/svg11.dtd">
<svg version="1.1" id="Capa_1" xmlns="http://www.w3.org/2000/svg" xmlns:xlink="http://www.w3.org/1999/xlink" x="0px" y="0px"
	 viewBox="0 0 20 20" enable-background="new 0 0 20 20" xml:space="preserve">
<path fill="#90B7A0" d="M19.2,3c-0.5-0.9-1.3-1.7-2.2-2.2C15.6,0,13.7,0,10,0C6.3,0,4.4,0,3,0.8C2.1,1.3,1.3,2.1,0.8,3
	C0,4.4,0,6.3,0,10c0,3.7,0,5.6,0.8,7c0.5,0.9,1.3,1.7,2.2,2.2C4.4,20,6.3,20,10,20c3.7,0,5.6,0,7-0.8c0.9-0.5,1.7-1.3,2.2-2.2
	c0.8-1.4,0.8-3.3,0.8-7C20,6.3,20,4.4,19.2,3z M15,6.7h-2.3c-0.8,0-1.4,0.6-1.4,1.3v2.1h3.3l-0.4,2.7h-2.9V19H8.5v-6.3H6v-2.7h2.5V8
	c0-2.2,1.8-4,4.1-4H15V6.7z"/>
</svg>
