<?xml version="1.0" encoding="utf-8"?>
<!-- Generator: Adobe Illustrator 18.0.0, SVG Export Plug-In . SVG Version: 6.00 Build 0)  -->
<!DOCTYPE svg PUBLIC "-//W3C//DTD SVG 1.1//EN" "http://www.w3.org/Graphics/SVG/1.1/DTD/svg11.dtd">
<svg version="1.1" id="Capa_1" xmlns="http://www.w3.org/2000/svg" xmlns:xlink="http://www.w3.org/1999/xlink" x="0px" y="0px"
	 viewBox="0 0 20 20" enable-background="new 0 0 20 20" xml:space="preserve">
<path fill="#90B7A0" d="M10,14c1.9,0,3.5-1.6,3.5-3.5S11.9,7,10,7s-3.5,1.6-3.5,3.5S8.1,14,10,14z"/>
<path fill="#90B7A0" d="M0,10c0-3.7,0-5.6,0.8-7C1.3,2.1,2.1,1.3,3,0.8C4.4,0,6.3,0,10,0c3.7,0,5.6,0,7,0.8c0.9,0.5,1.7,1.3,2.2,2.2
	C20,4.4,20,6.3,20,10c0,3.7,0,5.6-0.8,7c-0.5,0.9-1.3,1.7-2.2,2.2C15.6,20,13.7,20,10,20c-3.7,0-5.6,0-7-0.8
	c-0.9-0.5-1.7-1.3-2.2-2.2C0,15.6,0,13.7,0,10z M10,15.5c2.8,0,5-2.2,5-5c0-2.8-2.2-5-5-5c-2.8,0-5,2.2-5,5C5,13.3,7.2,15.5,10,15.5
	z M14.5,6C15.3,6,16,5.3,16,4.5S15.3,3,14.5,3S13,3.7,13,4.5S13.7,6,14.5,6z"/>
</svg>
