<?xml version="1.0" encoding="utf-8"?>
<!-- Generator: Adobe Illustrator 18.0.0, SVG Export Plug-In . SVG Version: 6.00 Build 0)  -->
<!DOCTYPE svg PUBLIC "-//W3C//DTD SVG 1.1//EN" "http://www.w3.org/Graphics/SVG/1.1/DTD/svg11.dtd">
<svg version="1.1" id="Capa_1" xmlns="http://www.w3.org/2000/svg" xmlns:xlink="http://www.w3.org/1999/xlink" x="0px" y="0px"
	 viewBox="0 0 930 132" enable-background="new 0 0 930 132" xml:space="preserve">
<path fill="#FFFFFF" d="M0,132V1h67.7C75.1,1,78,4,78,11.7v70.7c0,8-3.2,11.5-10.3,11.5H35v38H0z M35,68h3.8c1.4,0,2.4-0.4,3.2-1.1
	c1-1,1-2.4,1-3V35.3c0-2.9-1.2-4.3-3.5-4.3H35V68z"/>
<path fill="#FFFFFF" d="M45,132v-30h79v30H45z M89,94V35h35v59H89z M89,27V1h35v26H89z"/>
<path fill="#FFFFFF" d="M131,132v-30h31v-8h-19.9c-7.3,0-11.1-3.9-11.1-11.5V11.7C131,4.3,134.4,1,142.1,1h57.2
	c7.5,0,10.7,3.2,10.7,10.7v70.7c0,7.8-3.5,11.5-10.7,11.5h-2l-0.2,26.8c0,7.6-3.4,11.2-10.7,11.2H131z M170.5,26.7
	c-2.8,0-4.5,2.4-4.5,4.6V63c0,3,1.6,4.6,4.5,4.6S175,66,175,63V31.3C175,29,173.3,26.7,170.5,26.7z"/>
<path fill="#FFFFFF" d="M315.5,132c-7.2,0-10.5-3.6-10.5-11.3V35.2c0-2.7-1.5-4.2-4.2-4.2H297v101h-24.5c-7.2,0-10.5-3.6-10.5-11.5
	v-86c0-1.8-1.3-3.6-4.3-3.6H253v101h-35V0.5l111.2-0.2c7.3,0,10.8,3.7,10.8,11.2V102h87v30H315.5z"/>
<path fill="#FFFFFF" d="M358.6,94c-7.2,0-10.6-3.7-10.6-11.5V11.7C348,4.2,351.2,1,358.6,1H427v26h-40.3c-2.3,0-3.7,1.3-3.7,3.5V35
	h44v24h-44v4.6c0,2.5,1.6,4.4,3.7,4.4H427v26H358.6z"/>
<path fill="#FFFFFF" d="M489,132c-7.3,0-11-3.9-11-11.5V35.2l0.2-0.1l-0.1-0.7c-0.4-3-2.8-3.3-3.7-3.5l-1.2-0.2l0,0.3H469v101h-35V1
	h68.6C510,1,513,4.1,513,11.7V132H489z"/>
<path fill="#FFFFFF" d="M531.9,132c-7.3,0-10.9-3.9-10.9-11.5V1h35v34h44v34h-44v28.1c0,3.1,1.7,4.9,4.7,4.9h4.3V80h35v22h86v30
	H531.9z"/>
<path fill="#FFFFFF" d="M618.4,94c-7.1,0-10.4-3.7-10.4-11.5V11.7C608,4.2,611.1,1,618.4,1h57.2c7.3,0,10.4,3.2,10.4,10.7v70.7
	c0,7.9-3.3,11.5-10.4,11.5H618.4z M647,26.7c-2.7,0-4,1.6-4,4.6V63c0,4,2.5,4.6,4,4.6s4-0.6,4-4.6V31.3
	C651,28.2,649.7,26.7,647,26.7z"/>
<path fill="#FFFFFF" d="M730.8,133c-7.9,0-13.8-7.7-13.8-14.6V0h36v94.9c0,2.2,3.1,8.1,6.4,8.1H841v30H730.8z"/>
<path fill="#FFFFFF" d="M806,94V82h-9v12h-35V11.7C762,7.3,763.5,0,773.2,0h57.2c7.1,0,10.6,3.8,10.6,11.7V94H806z M801.5,30.7
	c-2.8,0-4.5,2.4-4.5,4.6V65h9V35.3C806,33.1,804.3,30.7,801.5,30.7z"/>
<path fill="#FFFFFF" d="M851,132V1h68.4c7.5,0,10.6,3.3,10.6,10.9v41.2c0,7.6-3.3,10.9-10.6,10.9H917v7h2.4
	c7.4,0,10.6,3.4,10.6,11.1v38.6c0,7.7-3.5,11.3-11.1,11.3H851z M886,102h4.8c2.6,0,4.2-1.9,4.2-4.9V79c0-4.2-2.3-5-4.2-5H886V102z
	 M886,63h4.6c2.9,0,4.4-1.4,4.4-4V35.3c0-2.7-1.6-4.3-4.4-4.3H886V63z"/>
</svg>
