<?xml version="1.0" encoding="utf-8"?>
<!-- Generator: Adobe Illustrator 18.0.0, SVG Export Plug-In . SVG Version: 6.00 Build 0)  -->
<!DOCTYPE svg PUBLIC "-//W3C//DTD SVG 1.1//EN" "http://www.w3.org/Graphics/SVG/1.1/DTD/svg11.dtd">
<svg version="1.1" id="Capa_1" xmlns="http://www.w3.org/2000/svg" xmlns:xlink="http://www.w3.org/1999/xlink" x="0px" y="0px"
	 viewBox="4 2.5 16 19" enable-background="new 4 2.5 16 19" xml:space="preserve">
<g>
	<rect x="13.5" y="11" fill="#202020" width="1" height="6"/>
	<rect x="9.5" y="11" fill="#202020" width="1" height="6"/>
	<path fill="#202020" d="M20,6.5h-2.7l-2-4H8.7l-2,4H4v1h1.5V19c0,1.4,1.1,2.5,2.5,2.5h8c1.4,0,2.5-1.1,2.5-2.5V7.5H20V6.5z
		 M9.3,3.5h5.4l1.5,3H7.8L9.3,3.5z M17.5,19c0,0.8-0.7,1.5-1.5,1.5H8c-0.8,0-1.5-0.7-1.5-1.5V7.5h11V19z"/>
</g>
</svg>
