<?xml version="1.0" encoding="utf-8"?>
<!-- Generator: Adobe Illustrator 18.0.0, SVG Export Plug-In . SVG Version: 6.00 Build 0)  -->
<!DOCTYPE svg PUBLIC "-//W3C//DTD SVG 1.1//EN" "http://www.w3.org/Graphics/SVG/1.1/DTD/svg11.dtd">
<svg version="1.1" id="Capa_1" xmlns="http://www.w3.org/2000/svg" xmlns:xlink="http://www.w3.org/1999/xlink" x="0px" y="0px"
	 viewBox="0 0 20 16" enable-background="new 0 0 20 16" xml:space="preserve">
<path fill="#90B7A0" d="M16.1,0.1l-0.6,0c0,0,0.3,0,0.4,0l0,0C15.3,0.1,12.1,0,10,0C7.9,0,4.7,0.1,4.1,0.1l0,0c0.1,0,0.4,0,0.4,0
	l-0.6,0C1.7,0.2,0,1.7,0,3.6v8.8c0,1.9,1.7,3.5,3.9,3.5l0.6,0c0,0-0.2,0-0.3,0C5,15.9,8,16,10,16c2,0,5-0.1,5.8-0.1
	c-0.1,0-0.3,0-0.3,0l0.6,0c2.2-0.1,3.9-1.6,3.9-3.5V3.6C20,1.7,18.3,0.2,16.1,0.1z M4.1,15.9C4.1,15.9,4.1,15.9,4.1,15.9
	C4.1,15.9,4.1,15.9,4.1,15.9z M13.2,9.5l-3.2,2.1C8.7,12.5,7,11.6,7,10.1V5.9c0-1.5,1.7-2.4,2.9-1.5l3.2,2.1
	C14.3,7.2,14.3,8.8,13.2,9.5z"/>
</svg>
